<svg width="682" height="265" viewBox="0 0 682 265" fill="none" xmlns="http://www.w3.org/2000/svg">
<g opacity="0.2">
<path opacity="0.2" d="M15.0614 253.763H11.2712V340.741H15.0614V253.763Z" fill="#515056"/>
<path opacity="0.2" d="M23.3275 251.473H19.5372V338.451H23.3275V251.473Z" fill="#515056"/>
<path opacity="0.2" d="M31.593 249.19H27.8027V336.168H31.593V249.19Z" fill="#515056"/>
<path opacity="0.2" d="M39.8686 239.838H36.0783V335.638H39.8686V239.838Z" fill="#515056"/>
<path opacity="0.2" d="M48.1346 237.314H44.3443V333.115H48.1346V237.314Z" fill="#515056"/>
<path opacity="0.2" d="M56.4001 235.059H52.6098V340.747H56.4001V235.059Z" fill="#515056"/>
<path opacity="0.2" d="M64.666 232.274H60.8758V337.962H64.666V232.274Z" fill="#515056"/>
<path opacity="0.2" d="M72.9315 223.177H69.1413V340.748H72.9315V223.177Z" fill="#515056"/>
<path opacity="0.2" d="M81.1976 220.082H77.4073V337.653H81.1976V220.082Z" fill="#515056"/>
<path opacity="0.2" d="M89.4727 224.311H85.6824V342.976H89.4727V224.311Z" fill="#515056"/>
<path opacity="0.2" d="M97.7387 229.702H93.9484V332.173H97.7387V229.702Z" fill="#515056"/>
<path opacity="0.2" d="M106.004 219.89H102.214V349.343H106.004V219.89Z" fill="#515056"/>
<path opacity="0.2" d="M114.27 216.486H110.48V345.939H114.27V216.486Z" fill="#515056"/>
<path opacity="0.2" d="M122.536 213.075H118.745V342.529H122.536V213.075Z" fill="#515056"/>
<path opacity="0.2" d="M130.802 209.672H127.011V339.125H130.802V209.672Z" fill="#515056"/>
<path opacity="0.2" d="M139.077 222.228H135.286V403.129H139.077V222.228Z" fill="#515056"/>
<path opacity="0.2" d="M147.343 217.462H143.553V398.364H147.343V217.462Z" fill="#515056"/>
<path opacity="0.2" d="M155.608 212.704H151.818V393.605H155.608V212.704Z" fill="#515056"/>
<path opacity="0.2" d="M163.874 207.939H160.084V388.84H163.874V207.939Z" fill="#515056"/>
<path opacity="0.2" d="M172.14 201.351H168.35V385.932H172.14V201.351Z" fill="#515056"/>
<path opacity="0.2" d="M180.415 196.497H176.625V381.077H180.415V196.497Z" fill="#515056"/>
<path opacity="0.2" d="M188.681 191.635H184.891V376.216H188.681V191.635Z" fill="#515056"/>
<path opacity="0.2" d="M196.947 186.78H193.157V371.361H196.947V186.78Z" fill="#515056"/>
<path opacity="0.2" d="M205.212 160.926H201.422V337.97H205.212V160.926Z" fill="#515056"/>
<path opacity="0.2" d="M213.478 157.371H209.688V394.52H213.478V157.371Z" fill="#515056"/>
<path opacity="0.2" d="M221.744 174.974H217.954V375.569H221.744V174.974Z" fill="#515056"/>
<path opacity="0.2" d="M230.019 169.693H226.229V370.288H230.019V169.693Z" fill="#515056"/>
<path opacity="0.2" d="M238.286 182.552H234.495V339.4H238.286V182.552Z" fill="#515056"/>
<path opacity="0.2" d="M246.551 178.419H242.761V335.267H246.551V178.419Z" fill="#515056"/>
<path opacity="0.2" d="M254.817 174.293H251.027V342.969H254.817V174.293Z" fill="#515056"/>
<path opacity="0.2" d="M263.083 168.091H259.292V403.851H263.083V168.091Z" fill="#515056"/>
<path opacity="0.2" d="M271.349 161.881H267.558V397.642H271.349V161.881Z" fill="#515056"/>
<path opacity="0.2" d="M279.624 192.687H275.833V393.282H279.624V192.687Z" fill="#515056"/>
<path opacity="0.2" d="M287.89 161.881H284.099V333.335H287.89V161.881Z" fill="#515056"/>
<path opacity="0.2" d="M296.155 157.371H292.365V343.69H296.155V157.371Z" fill="#515056"/>
<path opacity="0.2" d="M304.421 152.86H300.631V340.748H304.421V152.86Z" fill="#515056"/>
<path opacity="0.2" d="M312.687 159.097H308.896V446.58H312.687V159.097Z" fill="#515056"/>
<path opacity="0.2" d="M320.953 151.533H317.162V439.016H320.953V151.533Z" fill="#515056"/>
<path opacity="0.2" d="M329.228 163.106H325.438V436.926H329.228V163.106Z" fill="#515056"/>
<path opacity="0.2" d="M337.494 155.899H333.704V429.72H337.494V155.899Z" fill="#515056"/>
<path opacity="0.2" d="M345.759 148.693H341.969V422.513H345.759V148.693Z" fill="#515056"/>
<path opacity="0.2" d="M354.025 141.486H350.235V415.307H354.025V141.486Z" fill="#515056"/>
<path opacity="0.2" d="M362.291 134.28H358.501V408.1H362.291V134.28Z" fill="#515056"/>
<path opacity="0.2" d="M370.557 127.074H366.767V400.894H370.557V127.074Z" fill="#515056"/>
<path opacity="0.2" d="M378.832 119.867H375.042V393.688H378.832V119.867Z" fill="#515056"/>
<path opacity="0.2" d="M387.098 112.661H383.308V386.482H387.098V112.661Z" fill="#515056"/>
<path opacity="0.2" d="M395.364 146.052H391.574V395.256H395.364V146.052Z" fill="#515056"/>
<path opacity="0.2" d="M403.629 139.492H399.839V388.696H403.629V139.492Z" fill="#515056"/>
<path opacity="0.2" d="M411.895 132.932H408.105V382.136H411.895V132.932Z" fill="#515056"/>
<path opacity="0.2" d="M420.17 126.372H416.38V375.576H420.17V126.372Z" fill="#515056"/>
<path opacity="0.2" d="M428.436 119.819H424.646V369.023H428.436V119.819Z" fill="#515056"/>
<path opacity="0.2" d="M436.702 113.259H432.912V362.463H436.702V113.259Z" fill="#515056"/>
<path opacity="0.2" d="M444.968 106.699H441.178V355.903H444.968V106.699Z" fill="#515056"/>
<path opacity="0.2" d="M453.234 100.139H449.443V349.343H453.234V100.139Z" fill="#515056"/>
<path opacity="0.2" d="M461.5 117.612H457.709V343.931H461.5V117.612Z" fill="#515056"/>
<path opacity="0.2" d="M469.775 111.65H465.984V337.97H469.775V111.65Z" fill="#515056"/>
<path opacity="0.2" d="M478.041 103.02H474.25V430.93H478.041V103.02Z" fill="#515056"/>
<path opacity="0.2" d="M486.306 94.3909H482.516V422.3H486.306V94.3909Z" fill="#515056"/>
<path opacity="0.2" d="M494.572 85.761H490.782V413.67H494.572V85.761Z" fill="#515056"/>
<path opacity="0.2" d="M502.838 77.1311H499.047V405.041H502.838V77.1311Z" fill="#515056"/>
<path opacity="0.2" d="M511.104 102.299H507.314V399.622H511.104V102.299Z" fill="#515056"/>
<path opacity="0.2" d="M519.379 94.4732H515.589V391.797H519.379V94.4732Z" fill="#515056"/>
<path opacity="0.2" d="M527.645 86.6481H523.855V383.972H527.645V86.6481Z" fill="#515056"/>
<path opacity="0.2" d="M535.91 78.8227H532.12V376.146H535.91V78.8227Z" fill="#515056"/>
<path opacity="0.2" d="M544.176 70.9977H540.386V368.321H544.176V70.9977Z" fill="#515056"/>
<path opacity="0.2" d="M552.442 63.1723H548.652V360.496H552.442V63.1723Z" fill="#515056"/>
<path opacity="0.2" d="M560.708 88.4563H556.918V352.678H560.708V88.4563Z" fill="#515056"/>
<path opacity="0.2" d="M568.983 81.4976H565.193V345.719H568.983V81.4976Z" fill="#515056"/>
<path opacity="0.2" d="M577.249 74.5457H573.459V338.767H577.249V74.5457Z" fill="#515056"/>
<path opacity="0.2" d="M585.515 67.5938H581.725V331.815H585.515V67.5938Z" fill="#515056"/>
<path opacity="0.2" d="M593.781 94.5282H589.99V421.035H593.781V94.5282Z" fill="#515056"/>
<path opacity="0.2" d="M602.047 85.9329H598.256V412.44H602.047V85.9329Z" fill="#515056"/>
<path opacity="0.2" d="M610.312 77.3375H606.522V403.844H610.312V77.3375Z" fill="#515056"/>
<path opacity="0.2" d="M618.588 68.7489H614.797V395.256H618.588V68.7489Z" fill="#515056"/>
<path opacity="0.2" d="M626.853 60.1536H623.063V386.66H626.853V60.1536Z" fill="#515056"/>
<path opacity="0.2" d="M635.119 51.5582H631.329V378.065H635.119V51.5582Z" fill="#515056"/>
<path opacity="0.2" d="M643.384 42.9697H639.594V369.477H643.384V42.9697Z" fill="#515056"/>
<path opacity="0.2" d="M651.651 34.3747H647.86V360.882H651.651V34.3747Z" fill="#515056"/>
<path opacity="0.2" d="M659.925 25.7793H656.135V352.286H659.925V25.7793Z" fill="#515056"/>
<path opacity="0.2" d="M668.192 17.1839H664.401V343.691H668.192V17.1839Z" fill="#515056"/>
<path opacity="0.2" d="M676.457 8.59537H672.667V335.102H676.457V8.59537Z" fill="#515056"/>
<path opacity="0.2" d="M684.723 0H680.933V340.748H684.723V0Z" fill="#515056"/>
</g>
<g opacity="0.5">
<path opacity="0.5" d="M332.999 184.222V179.492H331.35V184.222H325.582V222.522H331.35V227.253H332.999V222.523H338.767V184.223L332.999 184.222Z" fill="#515056"/>
<path opacity="0.5" d="M95.8193 246.026V241.295H94.1698V246.026H88.4118V284.32H94.1698V289.051H95.8193V284.32H101.587V246.026H95.8193Z" fill="#515056"/>
<path opacity="0.5" d="M168.08 219.381V214.65H166.438V219.381H160.672V257.675H166.438V262.406H168.078V257.675H173.845V219.381H168.08Z" fill="#515056"/>
<path opacity="0.5" d="M381.174 144.163V139.43H379.524V144.163H373.759V182.455H379.526V187.186H381.176V182.455H386.944V144.163H381.174Z" fill="#515056"/>
<path opacity="0.5" d="M405.26 160.341V155.61H403.62V160.341H397.852V198.641H403.62V203.372H405.259V198.642H411.028V160.342L405.26 160.341Z" fill="#515056"/>
<path opacity="0.5" d="M119.913 231.978V227.247H118.263V231.978H112.496V270.273H118.263V275.003H119.913V270.273H125.671V231.978H119.913Z" fill="#515056"/>
<path opacity="0.5" d="M308.906 172.938V168.208H307.267V172.938H301.499V211.238H307.267V215.969H308.906V211.24H314.675V172.94L308.906 172.938Z" fill="#515056"/>
<path opacity="0.5" d="M453.436 112.977V108.246H451.787V112.977H446.029V151.271H451.787V156.002H453.436V151.271H459.204V112.977H453.436Z" fill="#515056"/>
<path opacity="0.5" d="M47.6427 246.026V241.295H45.9932V246.026H40.2352V284.32H45.9932V289.051H47.6427V284.32H53.4103V246.026H47.6427Z" fill="#515056"/>
<path opacity="0.5" d="M212.553 172.938V168.208H210.913V172.938H205.145V211.238H210.913V215.969H212.553V211.24H218.321V172.94L212.553 172.938Z" fill="#515056"/>
<path opacity="0.5" d="M525.706 82.0543V77.3235H524.057V82.0543H518.289V120.354H524.057V125.085H525.706V120.355H531.464V82.0554L525.706 82.0543Z" fill="#515056"/>
<path opacity="0.5" d="M597.967 88.36V83.6291H596.32V88.36H590.559V126.654H596.32V131.385H597.969V126.654H603.735V88.36H597.967Z" fill="#515056"/>
<path opacity="0.5" d="M260.729 198.36V193.629H259.09V198.36H253.322V236.66H259.089V241.391H260.729V236.661H266.496V198.361L260.729 198.36Z" fill="#515056"/>
<path opacity="0.5" d="M622.06 69.457V64.7262H620.41V69.457H614.643V107.757H620.41V112.488H622.06V107.758H627.818V69.4581L622.06 69.457Z" fill="#515056"/>
<g opacity="0.5">
<path opacity="0.5" d="M555.558 90.54H542.382V139.609H555.558V90.54Z" fill="#515056"/>
<path opacity="0.5" d="M549.79 85.7196H548.14V90.4505H549.79V85.7196Z" fill="#515056"/>
<path opacity="0.5" d="M549.79 139.698H548.14V144.429H549.79V139.698Z" fill="#515056"/>
</g>
<path opacity="0.5" d="M668.327 48.7801V44.0493H666.677V48.7801H660.91V64.5129H666.677V69.2438H668.327V64.5129H674.085V48.7801H668.327Z" fill="#515056"/>
<path opacity="0.5" d="M573.881 80.741V76.0101H572.231V80.741H566.466V96.4738H572.233V101.205H573.883V96.4738H579.641V80.741H573.881Z" fill="#515056"/>
<path opacity="0.5" d="M284.821 179.32V174.589H283.171V179.32H277.406V195.052H283.173V199.783H284.823V195.052H290.59V179.32H284.821Z" fill="#515056"/>
<path opacity="0.5" d="M71.736 239.425V234.694H70.0845V239.425H64.319V255.158H70.0845V259.889H71.734V255.158H77.494V239.425H71.736Z" fill="#515056"/>
<path opacity="0.5" d="M143.996 230.658V225.927H142.347V230.658H136.589V246.391H142.347V251.121H143.996V246.391H149.764V230.658H143.996Z" fill="#515056"/>
<path opacity="0.5" d="M357.083 171.625V166.894H355.443V171.625H349.676V187.358H355.443V192.089H357.083V187.358H362.851V171.625H357.083Z" fill="#515056"/>
<path opacity="0.5" d="M429.353 136.563V131.832H427.704V136.563H421.936V152.296H427.704V157.027H429.353V152.296H435.111V136.563H429.353Z" fill="#515056"/>
<path opacity="0.5" d="M190.321 209.644V204.913H188.671V209.644H182.904V225.377H188.671V230.108H190.321V225.377H196.088V209.644H190.321Z" fill="#515056"/>
<path opacity="0.5" d="M501.613 109.575V104.843H499.966V109.575H494.206V125.308H499.966V130.038H501.616V125.306H507.382V109.575H501.613Z" fill="#515056"/>
<path opacity="0.5" d="M483.288 120.919H477.528V116.305H475.878V120.919H470.113V190.947H475.88V195.563H477.53V190.949H483.288V120.919Z" fill="#515056"/>
<path opacity="0.5" d="M242.414 182.497H236.646V177.883H234.997V182.497H229.229V252.525H234.997V257.139H236.646V252.525H242.414V182.497Z" fill="#515056"/>
<path opacity="0.5" d="M651.911 57.4787H646.143V52.8579H644.494V57.4787H638.736V127.507H644.494V132.121H646.143V127.507H651.911V57.4787Z" fill="#515056"/>
</g>
<g opacity="0.1">
<path opacity="0.1" d="M319.275 177.112V172.794H317.211V177.112H309.958V212.051H317.211V216.369H319.275V212.051H326.528V177.112H319.275Z" fill="#515056"/>
<path opacity="0.1" d="M20.9264 233.498V229.187H18.8527V233.498H11.5995V268.443H18.8527V272.762H20.9264V268.443H28.1795V233.498H20.9264Z" fill="#515056"/>
<path opacity="0.1" d="M111.83 209.184V204.872H109.757V209.184H102.503V244.129H109.757V248.448H111.83V244.129H119.083V209.184H111.83Z" fill="#515056"/>
<path opacity="0.1" d="M379.884 140.559V136.247H377.81V140.559H370.557V175.504H377.81V179.816H379.884V175.504H387.137V140.559H379.884Z" fill="#515056"/>
<path opacity="0.1" d="M410.179 155.328V151.01H408.115V155.328H400.862V190.267H408.115V194.585H410.179V190.267H417.432V155.328H410.179Z" fill="#515056"/>
<path opacity="0.1" d="M51.2307 220.681V216.362H49.157V220.681H41.9039V255.619H49.157V259.938H51.2307V255.619H58.4843V220.681H51.2307Z" fill="#515056"/>
<path opacity="0.1" d="M288.98 166.819V162.507H286.906V166.819H279.653V201.764H286.906V206.076H288.98V201.764H296.233V166.819H288.98Z" fill="#515056"/>
<path opacity="0.1" d="M470.788 112.104V107.793H468.714V112.104H461.461V147.049H468.714V151.368H470.788V147.049H478.042V112.104H470.788Z" fill="#515056"/>
<path opacity="0.1" d="M167.771 166.819V162.507H165.698V166.819H158.445V201.764H165.698V206.076H167.771V201.764H175.025V166.819H167.771Z" fill="#515056"/>
<path opacity="0.1" d="M561.692 83.8974V79.579H559.618V83.8974H552.365V118.843H559.618V123.154H561.692V118.843H568.945V83.8974H561.692Z" fill="#515056"/>
<path opacity="0.1" d="M652.596 89.646V85.3344H650.522V89.646H643.269V124.591H650.522V128.903H652.596V124.591H659.85V89.646H652.596Z" fill="#515056"/>
<path opacity="0.1" d="M228.371 190.012V185.694H226.307V190.012H219.054V224.958H226.307V229.269H228.371V224.958H235.624V190.012H228.371Z" fill="#515056"/>
<path opacity="0.1" d="M682.891 72.4078V68.0887H680.827V72.4078H673.574V107.346H680.827V111.665H682.891V107.346H690.144V72.4078H682.891Z" fill="#515056"/>
<g opacity="0.1">
<path opacity="0.1" d="M599.25 91.6401H582.67V136.411H599.25V91.6401Z" fill="#515056"/>
<path opacity="0.1" d="M591.997 87.2394H589.923V91.5577H591.997V87.2394Z" fill="#515056"/>
<path opacity="0.1" d="M591.997 136.494H589.923V140.813H591.997V136.494Z" fill="#515056"/>
</g>
<path opacity="0.1" d="M622.291 82.7009V78.3826H620.218V82.7009H612.965V97.0517H620.218V101.37H622.291V97.0517H629.545V82.7009H622.291Z" fill="#515056"/>
<path opacity="0.1" d="M258.675 172.643V168.325H256.602V172.643H249.349V186.994H256.602V191.312H258.675V186.994H265.928V172.643H258.675Z" fill="#515056"/>
<path opacity="0.1" d="M81.526 219.477V215.166H79.4619V219.477H72.1992V233.835H79.4629V238.153H81.526V233.835H88.7791V219.477H81.526Z" fill="#515056"/>
<path opacity="0.1" d="M349.579 165.622V161.304H347.506V165.622H340.252V179.973H347.506V184.291H349.579V179.973H356.832V165.622H349.579Z" fill="#515056"/>
<path opacity="0.1" d="M440.483 133.634V129.315H438.41V133.634H431.156V147.985H438.41V152.303H440.483V147.985H447.736V133.634H440.483Z" fill="#515056"/>
<path opacity="0.1" d="M139.801 200.307V195.988H137.727V200.307H130.474V214.665H137.727V218.976H139.801V214.664H147.054V200.307H139.801Z" fill="#515056"/>
<path opacity="0.1" d="M531.388 109.003V104.691H529.314V109.003H522.061V123.36H529.314V127.679H531.388V123.36H538.641V109.003H531.388Z" fill="#515056"/>
<path opacity="0.1" d="M508.336 119.358H501.083V115.143H499.019V119.358H491.766V183.246H499.019V187.461H501.083V183.246H508.336V119.358Z" fill="#515056"/>
<path opacity="0.1" d="M205.329 175.538H198.076V171.33H196.002V175.538H188.749V239.425H196.002V243.639H198.076V239.425H205.329V175.538Z" fill="#515056"/>
</g>
<path opacity="0.2" d="M17.6658 269.392L16.8461 268.421L85.4796 239.04L126.857 246.743L153.419 220.089L192.829 241.744L246.021 203.916L263.218 208.283L336.327 173.922L374.259 190.411L394.244 152.984L412.723 139.087L444.272 143.564L477.373 112.366L517.284 127.226L585.785 80.3501L600.841 66.2125L600.947 66.1575L624.722 54.7977L687.251 83.8639L686.383 84.813L624.742 56.1596L601.942 67.0447L586.934 81.134L517.566 128.606L477.828 113.808L444.949 144.814L413.275 140.317L395.624 153.595L375.063 192.089L336.368 175.263L263.43 209.541L246.426 205.223L192.966 243.249L153.759 221.705L127.515 248.035L85.7232 240.258L17.6658 269.392Z" fill="#515056"/>
</svg>
