<svg width="201" height="45" viewBox="0 0 201 45" fill="none" xmlns="http://www.w3.org/2000/svg">
<g clip-path="url(#clip0)">
<path fill-rule="evenodd" clip-rule="evenodd" d="M0 15.2821H30.2536V44.9872H30.2406C22.2238 44.9761 14.5385 41.8442 8.8698 36.2782C3.20105 30.7123 0.0113507 23.1664 0 15.2949V15.2821Z" fill="white"/>
<path fill-rule="evenodd" clip-rule="evenodd" d="M30.2518 14.4358H15.5643V0C19.4594 0.00920368 23.192 1.53354 25.9448 4.23921C28.6977 6.94488 30.2464 10.6114 30.2518 14.4358V14.4358Z" fill="white"/>
<path fill-rule="evenodd" clip-rule="evenodd" d="M15.5643 0.012822C19.4585 0.0167013 23.192 1.53732 25.9456 4.24097C28.6991 6.94463 30.2478 10.6105 30.2518 14.434V14.434V0L15.5643 0.012822Z" fill="white"/>
<path fill-rule="evenodd" clip-rule="evenodd" d="M0 14.4358H14.6875V0C10.7924 0.00920368 7.05978 1.53354 4.30694 4.23921C1.55411 6.94488 0.00541774 10.6114 0 14.4358V14.4358Z" fill="white"/>
<path fill-rule="evenodd" clip-rule="evenodd" d="M14.6875 0.012822C10.793 0.0167021 7.0592 1.53757 4.30557 4.24162C1.55193 6.94567 0.00345711 10.612 0 14.4358V14.4358V0L14.6875 0.012822Z" fill="white"/>
<path fill-rule="evenodd" clip-rule="evenodd" d="M61.3822 16.5075V0H44.6893C48.432 1.50292 51.8315 3.72423 54.6886 6.53376C54.8341 6.67664 54.9815 6.82135 55.1139 6.96422C57.8043 9.72351 59.9321 12.9629 61.3822 16.5075V16.5075Z" fill="white"/>
<path fill-rule="evenodd" clip-rule="evenodd" d="M61.3841 29.7179H31.1304V0H31.1435C39.1609 0.016466 46.845 3.1518 52.5129 8.71938C58.1809 14.287 61.3708 21.833 61.3841 29.7051V29.7179Z" fill="white"/>
<path fill-rule="evenodd" clip-rule="evenodd" d="M31.1304 30.566H45.8179V44.9872C41.923 44.9857 38.1881 43.4659 35.4339 40.7617C32.6798 38.0575 31.1319 34.3903 31.1304 30.566V30.566Z" fill="white"/>
<path fill-rule="evenodd" clip-rule="evenodd" d="M45.8179 45C41.9238 44.9962 38.1903 43.4755 35.4367 40.7719C32.6831 38.0682 31.1344 34.4024 31.1304 30.5789V30.5789V45H45.8179Z" fill="white"/>
<path fill-rule="evenodd" clip-rule="evenodd" d="M61.3822 30.566H46.6947V44.9872C50.5896 44.9857 54.3246 43.4659 57.0787 40.7617C59.8328 38.0575 61.3807 34.3903 61.3822 30.566V30.566Z" fill="white"/>
<path fill-rule="evenodd" clip-rule="evenodd" d="M46.6947 45C50.5889 44.9962 54.3224 43.4755 57.076 40.7719C59.8295 38.0682 61.3782 34.4024 61.3822 30.5789V30.5789V45H46.6947Z" fill="white"/>
<path d="M14.6875 0H0V14.4212H14.6875V0Z" fill="white"/>
<path d="M30.2518 0H15.5643V14.4212H30.2518V0Z" fill="white"/>
<path d="M45.8179 30.566H31.1304V44.9872H45.8179V30.566Z" fill="white"/>
<path d="M61.3822 30.566H46.6947V44.9872H61.3822V30.566Z" fill="white"/>
<path d="M79.0191 14.0841V21.6986H74.5306V0.300367H84.2315C85.1743 0.234961 86.1209 0.355915 87.0152 0.65607C87.9096 0.956225 88.7335 1.42948 89.4382 2.04783C90.0658 2.74407 90.5454 3.55642 90.8488 4.43718C91.1522 5.31793 91.2732 6.24933 91.2048 7.17666C91.3294 9.03637 90.7103 10.8704 89.4792 12.289C88.8303 12.9121 88.0552 13.3943 87.2041 13.7042C86.3531 14.0141 85.4451 14.1448 84.5392 14.0878H79.0284L79.0191 14.0841ZM79.0452 10.2118H83.3882C84.3055 10.2878 85.219 10.0267 85.9515 9.47914C86.2431 9.16088 86.4643 8.7868 86.6014 8.38045C86.7385 7.9741 86.7885 7.54428 86.7481 7.11805C86.8086 6.27719 86.5268 5.44711 85.9646 4.81008C85.6492 4.53106 85.2793 4.31787 84.8775 4.18342C84.4757 4.04897 84.0503 3.99607 83.6271 4.02793H79.0583V10.21L79.0452 10.2118Z" fill="white"/>
<path d="M103.588 19.7295C103.067 20.533 102.332 21.1819 101.464 21.6071C100.507 22.057 99.4567 22.2804 98.3965 22.2592C97.7371 22.3017 97.0759 22.2075 96.456 21.9829C95.836 21.7582 95.2711 21.408 94.798 20.955C93.9022 19.9238 93.4499 18.591 93.5368 17.2384C93.4944 16.6142 93.5847 15.9883 93.8018 15.4002C94.0189 14.8121 94.3581 14.2747 94.798 13.8222C96.0001 12.8914 97.4547 12.3288 98.9804 12.2048C99.4188 12.1389 100.003 12.0619 100.721 11.9703C102.54 11.7359 103.456 11.2138 103.456 10.4189C103.482 10.1585 103.439 9.89592 103.332 9.65635C103.225 9.41679 103.057 9.20822 102.844 9.05057C102.222 8.72239 101.517 8.57739 100.813 8.63294C100.11 8.58947 99.4117 8.76792 98.82 9.14216C98.5924 9.30878 98.4103 9.5281 98.2898 9.78057C98.1694 10.033 98.1144 10.3108 98.1298 10.5892V10.8237H94.1058V10.5361C94.0735 9.81207 94.2141 9.09065 94.5163 8.42944C94.8185 7.76824 95.274 7.18557 95.8463 6.72795C97.2424 5.7346 98.9459 5.24658 100.667 5.34683C102.465 5.23774 104.257 5.63559 105.833 6.49349C106.404 6.83985 106.871 7.32909 107.186 7.91104C107.501 8.493 107.653 9.14673 107.625 9.80524V18.7807C107.599 19.2781 107.671 19.7758 107.838 20.2461C107.967 20.5665 108.213 20.828 108.528 20.9788V21.6968H104.04C103.887 21.4122 103.771 21.1101 103.695 20.7974C103.638 20.4439 103.602 20.0873 103.588 19.7295ZM103.521 13.9266C102.745 14.2726 101.932 14.5307 101.096 14.696C100.18 14.8919 99.7155 14.9964 99.6875 14.9964C99.096 15.1234 98.5475 15.3971 98.0943 15.7913C97.7755 16.1561 97.6135 16.6284 97.6429 17.1083C97.6285 17.3659 97.6723 17.6234 97.771 17.8624C97.8696 18.1015 98.0209 18.3162 98.2138 18.4913C98.6457 18.8523 99.2012 19.0389 99.7678 19.0133C100.268 19.0393 100.769 18.9674 101.241 18.8017C101.713 18.636 102.147 18.3798 102.518 18.048C102.858 17.6993 103.123 17.2855 103.294 16.8325C103.465 16.3794 103.54 15.8966 103.514 15.414L103.521 13.9266Z" fill="white"/>
<path d="M125.13 5.9072V21.6985H120.919V19.8283C120.354 20.5593 119.622 21.1492 118.781 21.5501C117.92 21.9413 116.98 22.1373 116.032 22.1235C115.309 22.1784 114.583 22.0851 113.899 21.8495C113.215 21.6139 112.589 21.2413 112.06 20.7552C111.098 19.614 110.622 18.1518 110.732 16.6741V5.9072H115.035V15.4523C114.957 16.2917 115.158 17.1334 115.606 17.8519C115.846 18.1095 116.144 18.3086 116.476 18.4333C116.808 18.558 117.165 18.6048 117.518 18.5699C117.961 18.5914 118.403 18.5226 118.817 18.3678C119.231 18.2129 119.607 17.9755 119.923 17.6705C120.23 17.3432 120.467 16.9588 120.62 16.54C120.772 16.1213 120.838 15.6767 120.813 15.2325V5.9072H125.13Z" fill="white"/>
<path d="M128.794 21.6987V0.300446H133.096V21.6987H128.794Z" fill="white"/>
<path d="M137.4 4.14707V0.300446H141.703V4.14707H137.4ZM137.4 21.6987V5.90736H141.703V21.6987H137.4Z" fill="white"/>
<path d="M145.873 21.6986V5.90734H150.083V7.78486C150.64 7.05148 151.369 6.46083 152.208 6.06303C153.065 5.67482 154 5.47896 154.943 5.4897C155.667 5.43443 156.394 5.52628 157.08 5.75951C157.765 5.99274 158.395 6.36233 158.928 6.84518C159.894 7.98936 160.37 9.45704 160.256 10.9391V21.6968H155.947V12.1535C156.021 11.3046 155.817 10.4548 155.363 9.72832C155.126 9.4695 154.832 9.26849 154.502 9.1413C154.172 9.0141 153.817 8.96422 153.464 8.99563C153.018 8.97312 152.573 9.04141 152.156 9.19619C151.738 9.35097 151.358 9.5889 151.039 9.89501C150.732 10.2223 150.495 10.6067 150.342 11.0255C150.189 11.4443 150.124 11.8889 150.149 12.333V21.695L145.873 21.6986Z" fill="white"/>
<path d="M163.723 21.6987V0.300446H167.998V7.65482C168.553 6.96089 169.268 6.40649 170.084 6.03741C170.913 5.68727 171.805 5.50122 172.707 5.4899C173.609 5.47859 174.505 5.64223 175.343 5.97147C176.074 6.26265 176.717 6.73389 177.209 7.33977C177.542 7.73819 177.778 8.20623 177.899 8.70807C178.06 9.51931 178.126 10.3458 178.098 11.1717V21.695H173.823V13.4321C173.949 12.1808 173.762 10.9181 173.278 9.75398C173.036 9.48297 172.731 9.2737 172.388 9.14416C172.046 9.01462 171.676 8.96868 171.312 9.0103C170.866 8.98779 170.421 9.05608 170.003 9.21086C169.586 9.36564 169.206 9.60357 168.886 9.90968C168.58 10.237 168.343 10.6214 168.19 11.0402C168.037 11.4589 167.971 11.9035 167.997 12.3477V21.7097H163.723V21.6987Z" fill="white"/>
<path d="M178.97 13.7837C178.844 11.5193 179.625 9.2964 181.147 7.5906C182.783 6.13855 184.911 5.33466 187.117 5.33466C189.323 5.33466 191.45 6.13855 193.086 7.5906C194.619 9.29054 195.402 11.5175 195.266 13.7837C195.396 16.0534 194.614 18.2828 193.086 19.9914C191.45 21.4434 189.323 22.2473 187.117 22.2473C184.911 22.2473 182.783 21.4434 181.147 19.9914C179.622 18.2813 178.841 16.0528 178.97 13.7837V13.7837ZM183.339 13.7837C183.259 15.0646 183.604 16.3365 184.322 17.4087C184.664 17.8087 185.09 18.1304 185.572 18.3511C186.054 18.5718 186.579 18.6862 187.111 18.6862C187.643 18.6862 188.168 18.5718 188.65 18.3511C189.132 18.1304 189.558 17.8087 189.9 17.4087C190.544 16.3074 190.883 15.0598 190.883 13.7901C190.883 12.5203 190.544 11.2727 189.9 10.1715C189.556 9.77482 189.129 9.4562 188.647 9.23771C188.166 9.01921 187.642 8.90604 187.111 8.90604C186.581 8.90604 186.057 9.01921 185.575 9.23771C185.093 9.4562 184.666 9.77482 184.322 10.1715C183.604 11.2388 183.259 12.5067 183.339 13.7837V13.7837Z" fill="white"/>
<path d="M74.5437 44.9615V23.5633H79.0322V41.0105H89.6658V44.9615H74.5437Z" fill="white"/>
<path d="M97.6112 23.5633H102.79L110.638 44.9615H105.937L104.463 40.5544H96.0254L94.5909 44.9615H89.8691L97.6112 23.5633ZM100.223 27.8532L97.2082 36.955H103.264L100.223 27.8532Z" fill="white"/>
<path d="M113.748 44.9615V23.5633H120.375L124.705 39.8492L128.98 23.5633H135.635V44.9615H131.437V27.7103L127.014 44.9615H122.432L117.944 27.7103V44.9615H113.748Z" fill="white"/>
<path d="M145.66 23.5633H150.839L158.688 44.9615H153.986L152.512 40.5544H144.075L142.64 44.9615H137.918L145.66 23.5633ZM148.272 27.8532L145.257 36.955H151.313L148.272 27.8532Z" fill="white"/>
<path d="M160.589 44.9615V23.5633H165.277L174.121 38.2592V23.5633H178.544V44.9615H173.908L164.997 30.2656V44.9615H160.589Z" fill="white"/>
<path d="M187.973 23.5633H193.152L201 44.9615H196.299L194.825 40.5544H186.387L184.952 44.9615H180.231L187.973 23.5633ZM190.585 27.8532L187.57 36.955H193.626L190.585 27.8532Z" fill="white"/>
</g>
<defs>
<clipPath id="clip0">
<rect width="201" height="45" fill="white"/>
</clipPath>
</defs>
</svg>
